G04 #@! TF.FileFunction,Legend,Bot*
%FSLAX46Y46*%
G04 Gerber Fmt 4.6, Leading zero omitted, Abs format (unit mm)*
G04 Created by KiCad (PCBNEW 4.0.4-stable) date 2017 July 07, Friday 12:30:10*
%MOMM*%
%LPD*%
G01*
G04 APERTURE LIST*
%ADD10C,0.100000*%
%ADD11C,0.150000*%
G04 APERTURE END LIST*
D10*
D11*
X31516000Y-142538000D02*
X31516000Y-145538000D01*
X34016000Y-145538000D02*
X34016000Y-142538000D01*
X51800000Y-148320000D02*
X51800000Y-141320000D01*
X51800000Y-141320000D02*
X49800000Y-141320000D01*
X49800000Y-141320000D02*
X49800000Y-148320000D01*
X49800000Y-148320000D02*
X51800000Y-148320000D01*
X116840000Y-143256000D02*
X111760000Y-143256000D01*
X108940000Y-143536000D02*
X110490000Y-143536000D01*
X109220000Y-140716000D02*
X111760000Y-140716000D01*
X111760000Y-140716000D02*
X111760000Y-143256000D01*
X116840000Y-143256000D02*
X116840000Y-138176000D01*
X116840000Y-138176000D02*
X111760000Y-138176000D01*
X108940000Y-143536000D02*
X108940000Y-141986000D01*
X109220000Y-138176000D02*
X109220000Y-140716000D01*
X111760000Y-138176000D02*
X109220000Y-138176000D01*
X112585500Y-173670000D02*
X115125500Y-173670000D01*
X109765500Y-173950000D02*
X111315500Y-173950000D01*
X112585500Y-173670000D02*
X112585500Y-171130000D01*
X111315500Y-170850000D02*
X109765500Y-170850000D01*
X109765500Y-170850000D02*
X109765500Y-173950000D01*
X112585500Y-171130000D02*
X115125500Y-171130000D01*
X115125500Y-171130000D02*
X115125500Y-173670000D01*
X44450000Y-133350000D02*
X49530000Y-133350000D01*
X41630000Y-133070000D02*
X41630000Y-134620000D01*
X41910000Y-135890000D02*
X44450000Y-135890000D01*
X44450000Y-135890000D02*
X44450000Y-133350000D01*
X49530000Y-133350000D02*
X49530000Y-138430000D01*
X49530000Y-138430000D02*
X44450000Y-138430000D01*
X41630000Y-133070000D02*
X43180000Y-133070000D01*
X41910000Y-138430000D02*
X41910000Y-135890000D01*
X44450000Y-138430000D02*
X41910000Y-138430000D01*
X40640000Y-166370000D02*
X45720000Y-166370000D01*
X45720000Y-166370000D02*
X45720000Y-163830000D01*
X45720000Y-163830000D02*
X40640000Y-163830000D01*
X40640000Y-163830000D02*
X40640000Y-166370000D01*
X45720000Y-172720000D02*
X40640000Y-172720000D01*
X40640000Y-172720000D02*
X40640000Y-175260000D01*
X40640000Y-175260000D02*
X45720000Y-175260000D01*
X45720000Y-175260000D02*
X45720000Y-172720000D01*
X45720000Y-176530000D02*
X40640000Y-176530000D01*
X40640000Y-176530000D02*
X40640000Y-179070000D01*
X40640000Y-179070000D02*
X45720000Y-179070000D01*
X45720000Y-179070000D02*
X45720000Y-176530000D01*
X45466000Y-145161000D02*
X45466000Y-141732000D01*
X35814000Y-145161000D02*
X35814000Y-141732000D01*
X45974000Y-146304000D02*
X35306000Y-146304000D01*
X42418000Y-145288000D02*
X42418000Y-146558000D01*
X38862000Y-145288000D02*
X38862000Y-146558000D01*
X35306000Y-145161000D02*
X45974000Y-145161000D01*
X45974000Y-141732000D02*
X35306000Y-141732000D01*
X35306000Y-146558000D02*
X35306000Y-141732000D01*
X45974000Y-146558000D02*
X45974000Y-141732000D01*
X45974000Y-146558000D02*
X35306000Y-146558000D01*
X110515400Y-135928100D02*
X113055400Y-135928100D01*
X107695400Y-136208100D02*
X109245400Y-136208100D01*
X110515400Y-135928100D02*
X110515400Y-133388100D01*
X109245400Y-133108100D02*
X107695400Y-133108100D01*
X107695400Y-133108100D02*
X107695400Y-136208100D01*
X110515400Y-133388100D02*
X113055400Y-133388100D01*
X113055400Y-133388100D02*
X113055400Y-135928100D01*
X120904000Y-135636000D02*
X120904000Y-138176000D01*
X120624000Y-132816000D02*
X120624000Y-134366000D01*
X120904000Y-135636000D02*
X123444000Y-135636000D01*
X123724000Y-134366000D02*
X123724000Y-132816000D01*
X123724000Y-132816000D02*
X120624000Y-132816000D01*
X123444000Y-135636000D02*
X123444000Y-138176000D01*
X123444000Y-138176000D02*
X120904000Y-138176000D01*
X33020000Y-176530000D02*
X33020000Y-168910000D01*
X30480000Y-176530000D02*
X30480000Y-168910000D01*
X30200000Y-179350000D02*
X30200000Y-177800000D01*
X33020000Y-168910000D02*
X30480000Y-168910000D01*
X30480000Y-176530000D02*
X33020000Y-176530000D01*
X33300000Y-177800000D02*
X33300000Y-179350000D01*
X33300000Y-179350000D02*
X30200000Y-179350000D01*
X91440000Y-135382000D02*
X99060000Y-135382000D01*
X91440000Y-137922000D02*
X99060000Y-137922000D01*
X88620000Y-138202000D02*
X90170000Y-138202000D01*
X99060000Y-135382000D02*
X99060000Y-137922000D01*
X91440000Y-137922000D02*
X91440000Y-135382000D01*
X90170000Y-135102000D02*
X88620000Y-135102000D01*
X88620000Y-135102000D02*
X88620000Y-138202000D01*
X33123143Y-140081334D02*
X33170762Y-140033715D01*
X33218381Y-139890858D01*
X33218381Y-139795620D01*
X33170762Y-139652762D01*
X33075524Y-139557524D01*
X32980286Y-139509905D01*
X32789810Y-139462286D01*
X32646952Y-139462286D01*
X32456476Y-139509905D01*
X32361238Y-139557524D01*
X32266000Y-139652762D01*
X32218381Y-139795620D01*
X32218381Y-139890858D01*
X32266000Y-140033715D01*
X32313619Y-140081334D01*
X33218381Y-141033715D02*
X33218381Y-140462286D01*
X33218381Y-140748000D02*
X32218381Y-140748000D01*
X32361238Y-140652762D01*
X32456476Y-140557524D01*
X32504095Y-140462286D01*
X53407143Y-144653334D02*
X53454762Y-144605715D01*
X53502381Y-144462858D01*
X53502381Y-144367620D01*
X53454762Y-144224762D01*
X53359524Y-144129524D01*
X53264286Y-144081905D01*
X53073810Y-144034286D01*
X52930952Y-144034286D01*
X52740476Y-144081905D01*
X52645238Y-144129524D01*
X52550000Y-144224762D01*
X52502381Y-144367620D01*
X52502381Y-144462858D01*
X52550000Y-144605715D01*
X52597619Y-144653334D01*
X52597619Y-145034286D02*
X52550000Y-145081905D01*
X52502381Y-145177143D01*
X52502381Y-145415239D01*
X52550000Y-145510477D01*
X52597619Y-145558096D01*
X52692857Y-145605715D01*
X52788095Y-145605715D01*
X52930952Y-145558096D01*
X53502381Y-144986667D01*
X53502381Y-145605715D01*
X111228095Y-147538381D02*
X111228095Y-146538381D01*
X110847142Y-146538381D01*
X110751904Y-146586000D01*
X110704285Y-146633619D01*
X110656666Y-146728857D01*
X110656666Y-146871714D01*
X110704285Y-146966952D01*
X110751904Y-147014571D01*
X110847142Y-147062190D01*
X111228095Y-147062190D01*
X109799523Y-146871714D02*
X109799523Y-147538381D01*
X110037619Y-146490762D02*
X110275714Y-147205048D01*
X109656666Y-147205048D01*
X118117881Y-171661905D02*
X117117881Y-171661905D01*
X117117881Y-172042858D01*
X117165500Y-172138096D01*
X117213119Y-172185715D01*
X117308357Y-172233334D01*
X117451214Y-172233334D01*
X117546452Y-172185715D01*
X117594071Y-172138096D01*
X117641690Y-172042858D01*
X117641690Y-171661905D01*
X117117881Y-173138096D02*
X117117881Y-172661905D01*
X117594071Y-172614286D01*
X117546452Y-172661905D01*
X117498833Y-172757143D01*
X117498833Y-172995239D01*
X117546452Y-173090477D01*
X117594071Y-173138096D01*
X117689310Y-173185715D01*
X117927405Y-173185715D01*
X118022643Y-173138096D01*
X118070262Y-173090477D01*
X118117881Y-172995239D01*
X118117881Y-172757143D01*
X118070262Y-172661905D01*
X118022643Y-172614286D01*
X38532381Y-133881905D02*
X37532381Y-133881905D01*
X37532381Y-134262858D01*
X37580000Y-134358096D01*
X37627619Y-134405715D01*
X37722857Y-134453334D01*
X37865714Y-134453334D01*
X37960952Y-134405715D01*
X38008571Y-134358096D01*
X38056190Y-134262858D01*
X38056190Y-133881905D01*
X37532381Y-135310477D02*
X37532381Y-135120000D01*
X37580000Y-135024762D01*
X37627619Y-134977143D01*
X37770476Y-134881905D01*
X37960952Y-134834286D01*
X38341905Y-134834286D01*
X38437143Y-134881905D01*
X38484762Y-134929524D01*
X38532381Y-135024762D01*
X38532381Y-135215239D01*
X38484762Y-135310477D01*
X38437143Y-135358096D01*
X38341905Y-135405715D01*
X38103810Y-135405715D01*
X38008571Y-135358096D01*
X37960952Y-135310477D01*
X37913333Y-135215239D01*
X37913333Y-135024762D01*
X37960952Y-134929524D01*
X38008571Y-134881905D01*
X38103810Y-134834286D01*
X40806666Y-163012381D02*
X41140000Y-162536190D01*
X41378095Y-163012381D02*
X41378095Y-162012381D01*
X40997142Y-162012381D01*
X40901904Y-162060000D01*
X40854285Y-162107619D01*
X40806666Y-162202857D01*
X40806666Y-162345714D01*
X40854285Y-162440952D01*
X40901904Y-162488571D01*
X40997142Y-162536190D01*
X41378095Y-162536190D01*
X39854285Y-163012381D02*
X40425714Y-163012381D01*
X40140000Y-163012381D02*
X40140000Y-162012381D01*
X40235238Y-162155238D01*
X40330476Y-162250476D01*
X40425714Y-162298095D01*
X49696666Y-173172381D02*
X50030000Y-172696190D01*
X50268095Y-173172381D02*
X50268095Y-172172381D01*
X49887142Y-172172381D01*
X49791904Y-172220000D01*
X49744285Y-172267619D01*
X49696666Y-172362857D01*
X49696666Y-172505714D01*
X49744285Y-172600952D01*
X49791904Y-172648571D01*
X49887142Y-172696190D01*
X50268095Y-172696190D01*
X49315714Y-172267619D02*
X49268095Y-172220000D01*
X49172857Y-172172381D01*
X48934761Y-172172381D01*
X48839523Y-172220000D01*
X48791904Y-172267619D01*
X48744285Y-172362857D01*
X48744285Y-172458095D01*
X48791904Y-172600952D01*
X49363333Y-173172381D01*
X48744285Y-173172381D01*
X49696666Y-179522381D02*
X50030000Y-179046190D01*
X50268095Y-179522381D02*
X50268095Y-178522381D01*
X49887142Y-178522381D01*
X49791904Y-178570000D01*
X49744285Y-178617619D01*
X49696666Y-178712857D01*
X49696666Y-178855714D01*
X49744285Y-178950952D01*
X49791904Y-178998571D01*
X49887142Y-179046190D01*
X50268095Y-179046190D01*
X49363333Y-178522381D02*
X48744285Y-178522381D01*
X49077619Y-178903333D01*
X48934761Y-178903333D01*
X48839523Y-178950952D01*
X48791904Y-178998571D01*
X48744285Y-179093810D01*
X48744285Y-179331905D01*
X48791904Y-179427143D01*
X48839523Y-179474762D01*
X48934761Y-179522381D01*
X49220476Y-179522381D01*
X49315714Y-179474762D01*
X49363333Y-179427143D01*
X41401905Y-147280381D02*
X41401905Y-148089905D01*
X41354286Y-148185143D01*
X41306667Y-148232762D01*
X41211429Y-148280381D01*
X41020952Y-148280381D01*
X40925714Y-148232762D01*
X40878095Y-148185143D01*
X40830476Y-148089905D01*
X40830476Y-147280381D01*
X39830476Y-148280381D02*
X40401905Y-148280381D01*
X40116191Y-148280381D02*
X40116191Y-147280381D01*
X40211429Y-147423238D01*
X40306667Y-147518476D01*
X40401905Y-147566095D01*
X115006381Y-134135905D02*
X114006381Y-134135905D01*
X114006381Y-134516858D01*
X114054000Y-134612096D01*
X114101619Y-134659715D01*
X114196857Y-134707334D01*
X114339714Y-134707334D01*
X114434952Y-134659715D01*
X114482571Y-134612096D01*
X114530190Y-134516858D01*
X114530190Y-134135905D01*
X115006381Y-135659715D02*
X115006381Y-135088286D01*
X115006381Y-135374000D02*
X114006381Y-135374000D01*
X114149238Y-135278762D01*
X114244476Y-135183524D01*
X114292095Y-135088286D01*
X119899062Y-134150267D02*
X119946681Y-134293124D01*
X119946681Y-134531220D01*
X119899062Y-134626458D01*
X119851443Y-134674077D01*
X119756205Y-134721696D01*
X119660967Y-134721696D01*
X119565729Y-134674077D01*
X119518110Y-134626458D01*
X119470490Y-134531220D01*
X119422871Y-134340743D01*
X119375252Y-134245505D01*
X119327633Y-134197886D01*
X119232395Y-134150267D01*
X119137157Y-134150267D01*
X119041919Y-134197886D01*
X118994300Y-134245505D01*
X118946681Y-134340743D01*
X118946681Y-134578839D01*
X118994300Y-134721696D01*
X118946681Y-135055029D02*
X119946681Y-135293124D01*
X119232395Y-135483601D01*
X119946681Y-135674077D01*
X118946681Y-135912172D01*
X119280014Y-136721696D02*
X119946681Y-136721696D01*
X118899062Y-136483600D02*
X119613348Y-136245505D01*
X119613348Y-136864553D01*
X37302381Y-177061905D02*
X36302381Y-177061905D01*
X36302381Y-177442858D01*
X36350000Y-177538096D01*
X36397619Y-177585715D01*
X36492857Y-177633334D01*
X36635714Y-177633334D01*
X36730952Y-177585715D01*
X36778571Y-177538096D01*
X36826190Y-177442858D01*
X36826190Y-177061905D01*
X36302381Y-177966667D02*
X36302381Y-178585715D01*
X36683333Y-178252381D01*
X36683333Y-178395239D01*
X36730952Y-178490477D01*
X36778571Y-178538096D01*
X36873810Y-178585715D01*
X37111905Y-178585715D01*
X37207143Y-178538096D01*
X37254762Y-178490477D01*
X37302381Y-178395239D01*
X37302381Y-178109524D01*
X37254762Y-178014286D01*
X37207143Y-177966667D01*
X87828381Y-136167905D02*
X86828381Y-136167905D01*
X86828381Y-136548858D01*
X86876000Y-136644096D01*
X86923619Y-136691715D01*
X87018857Y-136739334D01*
X87161714Y-136739334D01*
X87256952Y-136691715D01*
X87304571Y-136644096D01*
X87352190Y-136548858D01*
X87352190Y-136167905D01*
X86923619Y-137120286D02*
X86876000Y-137167905D01*
X86828381Y-137263143D01*
X86828381Y-137501239D01*
X86876000Y-137596477D01*
X86923619Y-137644096D01*
X87018857Y-137691715D01*
X87114095Y-137691715D01*
X87256952Y-137644096D01*
X87828381Y-137072667D01*
X87828381Y-137691715D01*
M02*
