G04 #@! TF.FileFunction,Copper,L1,Top,Signal*
%FSLAX46Y46*%
G04 Gerber Fmt 4.6, Leading zero omitted, Abs format (unit mm)*
G04 Created by KiCad (PCBNEW 4.0.4-stable) date 2017 July 07, Friday 12:30:10*
%MOMM*%
%LPD*%
G01*
G04 APERTURE LIST*
%ADD10C,0.100000*%
%ADD11O,3.048000X1.727200*%
%ADD12R,2.000000X2.000000*%
%ADD13C,2.000000*%
%ADD14R,1.300000X1.300000*%
%ADD15C,1.300000*%
%ADD16R,1.727200X1.727200*%
%ADD17O,1.727200X1.727200*%
%ADD18R,2.032000X2.032000*%
%ADD19O,2.032000X2.032000*%
%ADD20O,1.400000X2.500000*%
%ADD21O,2.500000X1.400000*%
%ADD22C,1.998980*%
%ADD23O,2.032000X2.540000*%
%ADD24C,1.200000*%
%ADD25R,1.200000X1.200000*%
%ADD26R,2.032000X1.727200*%
%ADD27O,2.032000X1.727200*%
%ADD28R,1.727200X2.032000*%
%ADD29O,1.727200X2.032000*%
%ADD30C,0.600000*%
%ADD31C,0.750000*%
%ADD32C,0.250000*%
G04 APERTURE END LIST*
D10*
D11*
X108775500Y-166050000D03*
X108775500Y-160970000D03*
X121475500Y-166050000D03*
X121475500Y-160970000D03*
X100330000Y-142240000D03*
X100330000Y-147320000D03*
X87630000Y-142240000D03*
X87630000Y-147320000D03*
D12*
X110744000Y-178892200D03*
D13*
X108204000Y-178892200D03*
D14*
X32766000Y-142788000D03*
D15*
X32766000Y-145288000D03*
D14*
X50800000Y-147320000D03*
D15*
X50800000Y-142320000D03*
D12*
X119380000Y-179070000D03*
D13*
X121920000Y-179070000D03*
D16*
X110490000Y-141986000D03*
D17*
X110490000Y-139446000D03*
X113030000Y-141986000D03*
X113030000Y-139446000D03*
X115570000Y-141986000D03*
X115570000Y-139446000D03*
D18*
X111315500Y-172400000D03*
D19*
X113855500Y-172400000D03*
D16*
X43180000Y-134620000D03*
D17*
X43180000Y-137160000D03*
X45720000Y-134620000D03*
X45720000Y-137160000D03*
X48260000Y-134620000D03*
X48260000Y-137160000D03*
D20*
X48260000Y-152940000D03*
D21*
X46260000Y-154940000D03*
X50260000Y-154940000D03*
D22*
X39370000Y-165100000D03*
X46990000Y-165100000D03*
X46990000Y-173990000D03*
X39370000Y-173990000D03*
X46990000Y-177800000D03*
X39370000Y-177800000D03*
D11*
X100330000Y-154940000D03*
X100330000Y-160020000D03*
X87630000Y-154940000D03*
X87630000Y-160020000D03*
X100330000Y-167640000D03*
X100330000Y-172720000D03*
X87630000Y-167640000D03*
X87630000Y-172720000D03*
X108775500Y-153350000D03*
X108775500Y-148270000D03*
X121475500Y-153350000D03*
X121475500Y-148270000D03*
D23*
X40640000Y-143510000D03*
X43180000Y-143510000D03*
X38100000Y-143510000D03*
D24*
X71356000Y-134310000D03*
X71356000Y-136850000D03*
X71356000Y-139390000D03*
X71356000Y-141930000D03*
X71356000Y-144470000D03*
X71356000Y-147010000D03*
X71356000Y-149550000D03*
X71356000Y-152090000D03*
X71356000Y-154630000D03*
X71356000Y-157170000D03*
X71356000Y-159710000D03*
X71356000Y-162250000D03*
X71356000Y-164790000D03*
X71356000Y-167330000D03*
X71356000Y-169870000D03*
X71356000Y-172410000D03*
X71356000Y-174950000D03*
D25*
X55864000Y-134310000D03*
D24*
X55864000Y-136850000D03*
X55864000Y-139390000D03*
X55864000Y-141930000D03*
X55864000Y-144470000D03*
X55864000Y-147010000D03*
X55864000Y-149550000D03*
X55864000Y-152090000D03*
X55864000Y-154630000D03*
X55864000Y-157170000D03*
X55864000Y-159710000D03*
X55864000Y-162250000D03*
X55864000Y-164790000D03*
X55864000Y-167330000D03*
X55864000Y-169870000D03*
X55864000Y-172410000D03*
X55864000Y-174950000D03*
D18*
X77470000Y-151130000D03*
D19*
X77470000Y-153670000D03*
D26*
X77470000Y-135890000D03*
D27*
X77470000Y-138430000D03*
X77470000Y-140970000D03*
X77470000Y-143510000D03*
X77470000Y-146050000D03*
D18*
X109245400Y-134658100D03*
D19*
X111785400Y-134658100D03*
D18*
X122174000Y-134366000D03*
D19*
X122174000Y-136906000D03*
D26*
X31750000Y-177800000D03*
D27*
X31750000Y-175260000D03*
X31750000Y-172720000D03*
X31750000Y-170180000D03*
D28*
X90170000Y-136652000D03*
D29*
X92710000Y-136652000D03*
X95250000Y-136652000D03*
X97790000Y-136652000D03*
D30*
X111252000Y-165100000D03*
X43180000Y-160020000D03*
X35560000Y-175260000D03*
X50800000Y-165100000D03*
X117856000Y-149352000D03*
X62230000Y-134620000D03*
D31*
X32766000Y-142788000D02*
X34838000Y-142788000D01*
X34838000Y-142788000D02*
X35560000Y-143510000D01*
X68580000Y-130810000D02*
X39370000Y-130810000D01*
X38100000Y-143510000D02*
X35560000Y-143510000D01*
X38100000Y-143510000D02*
X38100000Y-139700000D01*
X38100000Y-139700000D02*
X40640000Y-137160000D01*
X43180000Y-137160000D02*
X40640000Y-137160000D01*
X69540000Y-139390000D02*
X71356000Y-139390000D01*
X68580000Y-138430000D02*
X69540000Y-139390000D01*
X68580000Y-130810000D02*
X68580000Y-138430000D01*
X39370000Y-135890000D02*
X39370000Y-130810000D01*
X40640000Y-137160000D02*
X39370000Y-135890000D01*
X32766000Y-147320000D02*
X31750000Y-148336000D01*
X31750000Y-148336000D02*
X31750000Y-170180000D01*
X40640000Y-143510000D02*
X40640000Y-146050000D01*
X32766000Y-147320000D02*
X32766000Y-145288000D01*
X40640000Y-146050000D02*
X39370000Y-147320000D01*
X39370000Y-147320000D02*
X32766000Y-147320000D01*
X52324000Y-132334000D02*
X63754000Y-132334000D01*
X63754000Y-132334000D02*
X66040000Y-134620000D01*
X66040000Y-134620000D02*
X66040000Y-140970000D01*
X66040000Y-140970000D02*
X67000000Y-141930000D01*
X67000000Y-141930000D02*
X71356000Y-141930000D01*
X52070000Y-132334000D02*
X52324000Y-132334000D01*
X52070000Y-139700000D02*
X52070000Y-132588000D01*
X52070000Y-132588000D02*
X52324000Y-132334000D01*
X43180000Y-134620000D02*
X43180000Y-132334000D01*
X43180000Y-132334000D02*
X52070000Y-132334000D01*
X50800000Y-142320000D02*
X50800000Y-139700000D01*
X40640000Y-143510000D02*
X40640000Y-139700000D01*
X40640000Y-139700000D02*
X50800000Y-139700000D01*
X50800000Y-139700000D02*
X52070000Y-139700000D01*
X50800000Y-147320000D02*
X46990000Y-147320000D01*
X46260000Y-148050000D02*
X46260000Y-154940000D01*
X46990000Y-147320000D02*
X46260000Y-148050000D01*
X43180000Y-143510000D02*
X46990000Y-143510000D01*
X46990000Y-143510000D02*
X50800000Y-147320000D01*
D32*
X119380000Y-179070000D02*
X119380000Y-177820000D01*
X119380000Y-177820000D02*
X116090700Y-174530700D01*
X116090700Y-174530700D02*
X113855500Y-174530700D01*
X110744000Y-178892200D02*
X110744000Y-177642200D01*
X110744000Y-177642200D02*
X113855500Y-174530700D01*
X113855500Y-174530700D02*
X113855500Y-173836840D01*
X113855500Y-173836840D02*
X113855500Y-172400000D01*
X111252000Y-145796000D02*
X113030000Y-144018000D01*
X113030000Y-144018000D02*
X113030000Y-141986000D01*
X111252000Y-165100000D02*
X111252000Y-145796000D01*
X121920000Y-179070000D02*
X121920000Y-170434000D01*
X118872000Y-137414000D02*
X118364000Y-136906000D01*
X121920000Y-170434000D02*
X121412000Y-170434000D01*
X121412000Y-170434000D02*
X118872000Y-167894000D01*
X113030000Y-137668000D02*
X113030000Y-139446000D01*
X118872000Y-167894000D02*
X118872000Y-137414000D01*
X118364000Y-136906000D02*
X113792000Y-136906000D01*
X113792000Y-136906000D02*
X113030000Y-137668000D01*
X90170000Y-136652000D02*
X90170000Y-143666400D01*
X87630000Y-147320000D02*
X87630000Y-146206400D01*
X87630000Y-146206400D02*
X90170000Y-143666400D01*
X92710000Y-154940000D02*
X92710000Y-136652000D01*
X92710000Y-154940000D02*
X87630000Y-160020000D01*
X95250000Y-136652000D02*
X95250000Y-171450000D01*
X95250000Y-171450000D02*
X96520000Y-172720000D01*
X96520000Y-172720000D02*
X100330000Y-172720000D01*
X97790000Y-136652000D02*
X97790000Y-136804400D01*
X97790000Y-136804400D02*
X100330000Y-139344400D01*
X100330000Y-139344400D02*
X100330000Y-142240000D01*
X100330000Y-167640000D02*
X100330000Y-166526400D01*
X100330000Y-166526400D02*
X97592790Y-163789190D01*
X97592790Y-157855010D02*
X98755200Y-156692600D01*
X97592790Y-163789190D02*
X97592790Y-157855010D01*
X98755200Y-156692600D02*
X99691000Y-156692600D01*
X99691000Y-156692600D02*
X100330000Y-156053600D01*
X100330000Y-156053600D02*
X100330000Y-154940000D01*
X97409000Y-144500600D02*
X97409000Y-150905400D01*
X97409000Y-150905400D02*
X100330000Y-153826400D01*
X100330000Y-153826400D02*
X100330000Y-154940000D01*
X100330000Y-142240000D02*
X99669600Y-142240000D01*
X99669600Y-142240000D02*
X97409000Y-144500600D01*
X100330000Y-142240000D02*
X101600000Y-142240000D01*
X34290000Y-176530000D02*
X33020000Y-177800000D01*
X33020000Y-177800000D02*
X31750000Y-177800000D01*
X34290000Y-160020000D02*
X34290000Y-176530000D01*
X43180000Y-160020000D02*
X34290000Y-160020000D01*
X35560000Y-170180000D02*
X35560000Y-175260000D01*
X45720000Y-170180000D02*
X35560000Y-170180000D01*
X50800000Y-165100000D02*
X45720000Y-170180000D01*
X108775500Y-166050000D02*
X115504000Y-166050000D01*
X115504000Y-166050000D02*
X115570000Y-165984000D01*
X115570000Y-165984000D02*
X115570000Y-143207314D01*
X115570000Y-143207314D02*
X115570000Y-141986000D01*
X108775500Y-166050000D02*
X109435900Y-166050000D01*
X117856000Y-149352000D02*
X117856000Y-141732000D01*
X117856000Y-141732000D02*
X115570000Y-139446000D01*
D31*
X77470000Y-153670000D02*
X76200000Y-153670000D01*
X74930000Y-148590000D02*
X77470000Y-146050000D01*
X74930000Y-152400000D02*
X74930000Y-148590000D01*
X76200000Y-153670000D02*
X74930000Y-152400000D01*
X77358682Y-156210000D02*
X77358682Y-153781318D01*
X77358682Y-153781318D02*
X77470000Y-153670000D01*
X50260000Y-154940000D02*
X52070000Y-154940000D01*
X52070000Y-154940000D02*
X53340000Y-156210000D01*
X53340000Y-156210000D02*
X53340000Y-179070000D01*
X53340000Y-179070000D02*
X73660000Y-179070000D01*
X73660000Y-179070000D02*
X73660000Y-157480000D01*
X73660000Y-157480000D02*
X76088682Y-157480000D01*
X76088682Y-157480000D02*
X77358682Y-156210000D01*
D32*
X77470000Y-138430000D02*
X76200000Y-138430000D01*
X74206000Y-137160000D02*
X71356000Y-134310000D01*
X74930000Y-137160000D02*
X74206000Y-137160000D01*
X76200000Y-138430000D02*
X74930000Y-137160000D01*
X77470000Y-140970000D02*
X76200000Y-140970000D01*
X74206000Y-139700000D02*
X71356000Y-136850000D01*
X74930000Y-139700000D02*
X74206000Y-139700000D01*
X76200000Y-140970000D02*
X74930000Y-139700000D01*
X55864000Y-134310000D02*
X61920000Y-134310000D01*
X61920000Y-134310000D02*
X62230000Y-134620000D01*
X56174000Y-172720000D02*
X55864000Y-172410000D01*
M02*
