M48
INCH,TZ
T1C0.016
T2C0.031
T3C0.032
T4C0.032
T5C0.039
T6C0.040
T7C0.045
%
G90
G05
T1
X14000Y-69000
X17000Y-63000
X20000Y-65000
X24500Y-53000
X43800Y-65000
X46400Y-58800
T2
X12900Y-56216
X18213Y-61000
X19000Y-60213
X19787Y-61000
X20000Y-56031
X20000Y-58000
X21994Y-52878
X21994Y-53878
X21994Y-54878
X21994Y-55878
X21994Y-56878
X21994Y-57878
X21994Y-58878
X21994Y-59878
X21994Y-60878
X21994Y-61878
X21994Y-62878
X21994Y-63878
X21994Y-64878
X21994Y-65878
X21994Y-66878
X21994Y-67878
X21994Y-68878
X28093Y-52878
X28093Y-53878
X28093Y-54878
X28093Y-55878
X28093Y-56878
X28093Y-57878
X28093Y-58878
X28093Y-59878
X28093Y-60878
X28093Y-61878
X28093Y-62878
X28093Y-63878
X28093Y-64878
X28093Y-65878
X28093Y-66878
X28093Y-67878
X28093Y-68878
T3
X12900Y-57200
T4
X34500Y-56000
X34500Y-58000
X34500Y-61000
X34500Y-63000
X34500Y-66000
X34500Y-68000
X39500Y-56000
X39500Y-58000
X39500Y-61000
X39500Y-63000
X39500Y-66000
X39500Y-68000
X42825Y-58374
X42825Y-60374
X42825Y-63374
X42825Y-65374
X47825Y-58374
X47825Y-60374
X47825Y-63374
X47825Y-65374
T5
X15500Y-65000
X15500Y-68500
X15500Y-70000
X18500Y-65000
X18500Y-68500
X18500Y-70000
X42600Y-70430
X43600Y-70430
X47000Y-70500
X48000Y-70500
T6
X12500Y-67000
X12500Y-68000
X12500Y-69000
X12500Y-70000
X17000Y-53000
X17000Y-54000
X18000Y-53000
X18000Y-54000
X19000Y-53000
X19000Y-54000
X30500Y-53500
X30500Y-54500
X30500Y-55500
X30500Y-56500
X30500Y-57500
X30500Y-59500
X30500Y-60500
X35500Y-53800
X36500Y-53800
X37500Y-53800
X38500Y-53800
X43010Y-53015
X43500Y-54900
X43500Y-55900
X43825Y-67874
X44010Y-53015
X44500Y-54900
X44500Y-55900
X44825Y-67874
X45500Y-54900
X45500Y-55900
X48100Y-52900
X48100Y-53900
T7
X15000Y-56500
X16000Y-56500
X17000Y-56500
T0
M30
